<svg xmlns="http://www.w3.org/2000/svg" viewBox="0 0 64 64" width="64" height="64">
  <g transform="rotate(-13, 32, 32)">
    <circle cx="32" cy="32" r="30" fill="#1a1a1a"/>
    <path d="M40.5 27.3c.6-4-2.4-6.2-6.6-7.6l1.4-5.4-3.3-.8-1.3 5.3c-.9-.2-1.8-.4-2.6-.6l1.3-5.3-3.3-.8-1.4 5.4c-.7-.2-1.4-.3-2.1-.5l0 0-4.5-1.1-.9 3.5s2.4.6 2.4.6c1.3.3 1.6 1.2 1.5 1.9l-1.5 6.2c.1 0 .2 0 .3.1-.1 0-.2-.1-.3-.1l-2.2 8.7c-.2.4-.6 1.1-1.5.8 0 0-2.4-.6-2.4-.6l-1.7 3.8 4.3 1.1c.8.2 1.6.4 2.3.6l-1.4 5.5 3.3.8 1.4-5.4c.9.2 1.8.5 2.6.7l-1.3 5.4 3.3.8 1.4-5.5c5.7 1.1 10 .6 11.8-4.5 1.5-4.1-.1-6.5-3-8 2.1-.5 3.7-1.9 4.2-4.8zm-7.5 10.5c-1 4.1-8.1 1.9-10.4 1.3l1.8-7.4c2.3.6 9.7 1.7 8.5 6.1zm1.1-10.6c-1 3.7-6.8 1.8-8.7 1.4l1.7-6.7c1.9.5 8.1 1.4 7 5.3z" fill="#fff"/>
  </g>
</svg>